<svg width="87" height="87" viewBox="0 0 87 87" fill="none" xmlns="http://www.w3.org/2000/svg">
<path d="M83.9294 43.5C83.9294 21.1715 65.8285 3.07059 43.5 3.07059C21.1715 3.07059 3.07059 21.1715 3.07059 43.5C3.07059 65.8285 21.1715 83.9294 43.5 83.9294V87C19.4756 87 0 67.5244 0 43.5C8.90224e-07 19.4756 19.4756 8.90332e-07 43.5 0C67.5244 0 87 19.4756 87 43.5C87 67.5244 67.5244 87 43.5 87V83.9294C65.8285 83.9294 83.9294 65.8285 83.9294 43.5Z" fill="#3267A5"/>
<path d="M77.5793 43.5C77.5792 24.6787 62.3212 9.42117 43.5 9.42117C24.6788 9.42129 9.42129 24.6788 9.42117 43.5C9.42117 62.3212 24.6787 77.5792 43.5 77.5793V80.6499L43.0202 80.6469C22.7242 80.3899 6.35059 63.8569 6.35059 43.5C6.3507 22.983 22.983 6.3507 43.5 6.35059C64.0171 6.35059 80.6497 22.9829 80.6499 43.5L80.6469 43.9802C80.3898 64.2762 63.8569 80.6499 43.5 80.6499V77.5793C62.3213 77.5793 77.5793 62.3213 77.5793 43.5Z" fill="#3267A5"/>
<path d="M64.9497 43.4999C64.9497 31.6538 55.3462 22.0507 43.5001 22.0507C31.6541 22.0508 22.051 31.6539 22.051 43.4999C22.051 55.3459 31.6541 64.9494 43.5001 64.9495V66.9966L43.1967 66.9946C30.3599 66.8321 20.0039 56.3752 20.0039 43.4999C20.004 30.5233 30.5235 20.0037 43.5001 20.0037C56.4767 20.0037 66.9967 30.5233 66.9968 43.4999L66.9948 43.8037C66.8322 56.6404 56.3754 66.9966 43.5001 66.9966V64.9495C55.3462 64.9495 64.9497 55.346 64.9497 43.4999Z" fill="#3267A5"/>
<path d="M34.444 39.0019L13.5242 13.3057L38.781 33.0917H48.4755L73.222 13.3057L52.8125 39.0019L86.4881 43.3702L52.8125 46.9677L73.222 74.2057L48.4755 53.3917H38.781L13.5242 74.2057L34.444 46.9677L1.02344 43.3702L34.444 39.0019Z" fill="#F6A800"/>
<path d="M43.4992 0L48.3745 43.3721H38.624L43.4992 0Z" fill="#3267A5"/>
<path d="M43.4998 87L38.6246 43.2441H48.375L43.4998 87Z" fill="white"/>
<path d="M38.6245 43.2441H48.375L43.4997 87L38.6245 43.2441ZM46.0871 45.2912H40.9124L43.4997 68.513L46.0871 45.2912Z" fill="#3267A5"/>
</svg>
